# xmcd
# Track frame offsets:
# 150
# 14884
# 34825
# 50672
# 66545
# 83280
# 103312
# 120690
# 138337
# 153702
# 166400
# 189907
# 203295
# 214984
# 230350
# 247647
# 260577
# 275522
# 291512
#
# Disc length: 4050 seconds
# Revision: 0
# Processed by: cddbd v1.5.1PL0 Copyright (c) Steve Scherf et al.
# Submitted via: VisiTrax 2.9.10.228 - For more info visit www.synapsa.com
#
DISCID=1a0fd013
DTITLE=Various Artist - Nashville Rocks
DYEAR=1900
DGENRE=Country Rock
TTITLE0=Wynonna - Girls With Guitars
TTITLE1=Hal Ketchum - Past The Point Of Rescue
TTITLE2=Hank Williams Jr. - Dog Wild
TTITLE3=Tim McGraw - All I Want Is A Life
TTITLE4=LeAnn Rimes - One Way Ticket (Because I Can)
TTITLE5=Delbert McClinton - Every Time I Roll The Dice
TTITLE6=Philip Claypool - Feel Like Makin' Love
TTITLE7=JoDee Messina - Walk To The Light
TTITLE8=Sawyer Brown - The Boys And Me
TTITLE9=Perfect Stranger - Cut Me Off
TTITLE10=Duane Eddy - Ghost Riders In The Sky
TTITLE11=Judds, The - Let Me Tell You About Love
TTITLE12=Junior Brown - Venom Wearin' Denim
TTITLE13=Desert Rose Band, The - One Step Forward
TTITLE14=Gretchen Peters - I Ain't Ever Satisfied
TTITLE15=Al Anderson - Under The Hood
TTITLE16=Bellamy Brothers - Dancin' Cowboys
TTITLE17=Jeff Wood - Long Way From OK
TTITLE18=Bob Woodruff - Out Of The Blue
EXTD=
EXTT0=
EXTT1=
EXTT2=
EXTT3=
EXTT4=
EXTT5=
EXTT6=
EXTT7=
EXTT8=
EXTT9=
EXTT10=
EXTT11=
EXTT12=
EXTT13=
EXTT14=
EXTT15=
EXTT16=
EXTT17=
EXTT18=
PLAYORDER=
